<svg width="1225" height="1024" viewBox="0 0 1225 1024" fill="none" xmlns="http://www.w3.org/2000/svg">
<rect width="1225" height="1024" fill="#E5E5E5"/>
<path d="M1164 529.242C1164 604.966 1109.27 675.216 1056.67 758.872C981.885 877.805 1029.75 920.932 839.214 999.06C730.488 1014.9 610.809 928.671 494.225 926.211C356.35 923.302 305 846.362 305 747C250.109 509.451 147 679 131 341C109 161 449.436 23 544.893 23C756.35 23 829.481 85.6211 958.497 184.533C1095.92 289.889 1164 434.659 1164 529.242Z" fill="#ACD7FD" fill-opacity="0.24"/>
<path fill-rule="evenodd" clip-rule="evenodd" d="M574.394 215.906C575.259 214.465 577.854 211.237 581.313 209.854L577.854 194.292L596.883 183.052L608.127 196.021C609.568 194.868 613.49 192.908 617.641 194.292L622.831 177L644.455 177.865L647.915 194.292C649.933 194.58 654.661 195.675 657.429 197.75L669.539 185.646L687.703 197.75L682.513 213.312C683.955 214.177 687.357 216.771 689.433 220.229L705.867 216.771C708.75 221.382 714.689 231.641 715.381 235.791L703.272 247.031C704.137 248.472 705.867 252.391 705.867 256.541L721.436 261.729C722.013 266.916 722.647 278.501 720.571 283.343L705.002 285.937C705.002 287.666 704.31 291.989 701.542 295.447L713.651 307.551C712.786 311.009 709.154 319.482 701.542 325.707L685.973 321.384C684.819 323.402 681.648 327.436 678.188 327.436L682.513 343.863C679.918 346.169 672.479 351.472 663.484 354.238L653.105 342.134C651.375 342.711 646.877 343.863 642.725 343.863L638.4 360.29C632.057 360.578 618.852 360.809 616.776 359.426L612.452 343.863C610.145 343.287 605.186 341.788 603.802 340.405L592.558 351.645C587.656 350.204 576.989 345.938 573.529 340.405L577.854 324.843C575.835 323.113 571.626 319.136 570.934 317.061L555.365 321.384C552.482 317.926 546.369 309.28 544.985 302.364L557.095 291.124C556.518 289.971 555.365 286.455 555.365 281.614L538.931 277.291C538.066 272.68 537.028 261.729 539.796 254.812L556.229 251.354C556.229 249.336 556.748 244.61 558.824 241.843L547.58 230.604C548.733 226.857 552.597 217.809 558.824 211.583L574.394 215.906ZM581.217 232.904C589.129 221.664 612.86 201.359 644.487 210.068C676.115 218.777 688.114 242.727 690.16 253.613C694.553 267.827 694.973 301.626 661.512 323.104C646.888 330.825 610.831 339.048 583.591 310.171C573.168 296.12 558.102 260.996 581.217 232.904Z" fill="#C9CCCE" fill-opacity="0.27"/>
<path fill-rule="evenodd" clip-rule="evenodd" d="M277.404 293.09C278.673 290.976 282.481 286.239 287.558 284.21L282.481 261.373L310.404 244.881L326.904 263.911C329.019 262.219 334.773 259.344 340.865 261.373L348.48 236L380.211 237.269L385.288 261.373C388.25 261.796 395.188 263.403 399.249 266.448L417.019 248.687L443.672 266.448L436.057 289.284C438.173 290.553 443.165 294.359 446.211 299.434L470.326 294.359C474.557 301.125 483.272 316.18 484.288 322.27L466.518 338.762C467.788 340.877 470.326 346.628 470.326 352.718L493.172 360.33C494.018 367.942 494.949 384.942 491.903 392.047L469.057 395.853C469.057 398.39 468.042 404.733 463.98 409.808L481.749 427.57C480.48 432.644 475.149 445.077 463.98 454.212L441.134 447.868C439.442 450.829 434.788 456.749 429.711 456.749L436.057 480.854C432.249 484.237 421.334 492.018 408.134 496.078L392.903 478.316C390.365 479.162 383.765 480.854 377.673 480.854L371.327 504.959C362.019 505.381 342.642 505.72 339.596 503.69L333.25 480.854C329.865 480.008 322.588 477.809 320.557 475.779L304.058 492.272C296.865 490.157 281.211 483.899 276.135 475.779L282.481 452.943C279.519 450.406 273.342 444.57 272.327 441.525L249.481 447.868C245.25 442.794 236.281 430.107 234.25 419.958L252.019 403.465C251.173 401.773 249.481 396.614 249.481 389.509L225.366 383.166C224.096 376.4 222.573 360.33 226.635 350.181L250.75 345.106C250.75 342.145 251.511 335.21 254.557 331.15L238.058 314.658C239.75 309.16 245.419 295.882 254.557 286.747L277.404 293.09ZM287.416 318.034C299.027 301.539 333.85 271.745 380.259 284.524C426.668 297.304 444.276 332.447 447.279 348.421C453.724 369.28 454.341 418.876 405.241 450.392C383.782 461.722 330.871 473.788 290.899 431.415C275.606 410.796 253.498 359.255 287.416 318.034Z" fill="#C8E2FB" fill-opacity="0.27"/>
<path d="M981.664 591.735L980.647 591.365L976.671 581.678L977.102 580.682C989.146 552.8 988.316 551.968 986.318 549.946L970.253 533.948C969.596 533.283 968.442 532.815 967.448 532.815C966.544 532.815 963.806 532.815 940.079 543.785L939.128 544.221L929.338 540.197L928.945 539.202C917.788 511 916.645 511 913.868 511H891.18C888.414 511 887.154 511 876.807 539.251L876.418 540.28L866.68 544.332L865.748 543.937C849.688 537.025 840.311 533.521 837.867 533.521C836.875 533.521 835.717 533.975 835.058 534.638L818.977 550.682C816.937 552.736 816.091 553.596 828.766 580.897L829.232 581.91L825.25 591.586L824.275 591.971C796 603.125 796 604.213 796 607.118V629.812C796 632.725 796 633.935 824.331 644.299L825.344 644.664L829.327 654.312L828.899 655.298C816.855 683.194 817.619 683.949 819.669 686.031L835.71 702.05C836.383 702.71 837.547 703.182 838.539 703.182C839.437 703.182 842.169 703.182 865.912 692.217L866.862 691.763L876.658 695.807L877.039 696.807C888.204 725 889.351 725 892.129 725H914.824C917.674 725 918.855 725 929.21 696.73L929.596 695.701L939.35 691.676L940.278 692.062C956.325 698.993 965.698 702.49 968.126 702.49C969.11 702.49 970.277 702.05 970.948 701.372L987.055 685.293C989.081 683.229 989.925 682.385 977.228 655.11L976.755 654.085L980.73 644.451L981.68 644.071C1010 632.858 1010 631.766 1010 628.857V606.176C1010 603.264 1010 602.061 981.664 591.735ZM902.999 654.806C882.723 654.806 866.228 638.29 866.228 618.004C866.228 597.718 882.723 581.223 902.999 581.223C923.267 581.223 939.76 597.721 939.76 618.004C939.76 638.287 923.268 654.806 902.999 654.806Z" fill="#C8E2FB" fill-opacity="0.5"/>
<path d="M981.664 591.735L980.647 591.365L976.671 581.678L977.102 580.682C989.146 552.8 988.316 551.968 986.318 549.946L970.253 533.948C969.596 533.283 968.442 532.815 967.448 532.815C966.544 532.815 963.806 532.815 940.079 543.785L939.128 544.221L929.338 540.197L928.945 539.202C917.788 511 916.645 511 913.868 511H891.18C888.414 511 887.154 511 876.807 539.251L876.418 540.28L866.68 544.332L865.748 543.937C849.688 537.025 840.311 533.521 837.867 533.521C836.875 533.521 835.717 533.975 835.058 534.638L818.977 550.682C816.937 552.736 816.091 553.596 828.766 580.897L829.232 581.91L825.25 591.586L824.275 591.971C796 603.125 796 604.213 796 607.118V629.812C796 632.725 796 633.935 824.331 644.299L825.344 644.664L829.327 654.312L828.899 655.298C816.855 683.194 817.619 683.949 819.669 686.031L835.71 702.05C836.383 702.71 837.547 703.182 838.539 703.182C839.437 703.182 842.169 703.182 865.912 692.217L866.862 691.763L876.658 695.807L877.039 696.807C888.204 725 889.351 725 892.129 725H914.824C917.674 725 918.855 725 929.21 696.73L929.596 695.701L939.35 691.676L940.278 692.062C956.325 698.993 965.698 702.49 968.126 702.49C969.11 702.49 970.277 702.05 970.948 701.372L987.055 685.293C989.081 683.229 989.925 682.385 977.228 655.11L976.755 654.085L980.73 644.451L981.68 644.071C1010 632.858 1010 631.766 1010 628.857V606.176C1010 603.264 1010 602.061 981.664 591.735ZM902.999 654.806C882.723 654.806 866.228 638.29 866.228 618.004C866.228 597.718 882.723 581.223 902.999 581.223C923.267 581.223 939.76 597.721 939.76 618.004C939.76 638.287 923.268 654.806 902.999 654.806Z" fill="#C8E2FB" fill-opacity="0.5"/>
<path d="M584.664 707.735L583.647 707.365L579.671 697.678L580.102 696.682C592.146 668.8 591.316 667.968 589.318 665.946L573.253 649.948C572.596 649.283 571.442 648.815 570.448 648.815C569.544 648.815 566.806 648.815 543.079 659.785L542.128 660.221L532.338 656.197L531.945 655.202C520.788 627 519.645 627 516.868 627H494.18C491.414 627 490.154 627 479.807 655.251L479.418 656.28L469.68 660.332L468.748 659.937C452.688 653.025 443.311 649.521 440.867 649.521C439.875 649.521 438.717 649.975 438.058 650.638L421.977 666.682C419.937 668.736 419.091 669.596 431.766 696.897L432.232 697.91L428.25 707.586L427.275 707.971C399 719.125 399 720.213 399 723.118V745.812C399 748.725 399 749.935 427.331 760.299L428.344 760.664L432.327 770.312L431.899 771.298C419.855 799.194 420.619 799.949 422.669 802.031L438.71 818.05C439.383 818.71 440.547 819.182 441.539 819.182C442.437 819.182 445.169 819.182 468.912 808.217L469.862 807.763L479.658 811.807L480.039 812.807C491.204 841 492.351 841 495.129 841H517.824C520.674 841 521.855 841 532.21 812.73L532.596 811.701L542.35 807.676L543.278 808.062C559.325 814.993 568.698 818.49 571.126 818.49C572.11 818.49 573.277 818.05 573.948 817.372L590.055 801.293C592.081 799.229 592.925 798.385 580.228 771.11L579.755 770.085L583.73 760.451L584.68 760.071C613 748.858 613 747.766 613 744.857V722.176C613 719.264 613 718.061 584.664 707.735ZM505.999 770.806C485.723 770.806 469.228 754.29 469.228 734.004C469.228 713.718 485.723 697.223 505.999 697.223C526.267 697.223 542.76 713.721 542.76 734.004C542.76 754.287 526.268 770.806 505.999 770.806Z" fill="#C8E2FB" fill-opacity="0.5"/>
<path fill-rule="evenodd" clip-rule="evenodd" d="M621.743 772.487C753.045 772.487 859.487 666.045 859.487 534.743C859.487 403.441 753.045 297 621.743 297C490.441 297 384 403.441 384 534.743C384 666.045 490.441 772.487 621.743 772.487ZM621.721 706.628C716.662 706.628 793.628 629.662 793.628 534.721C793.628 439.779 716.662 362.814 621.721 362.814C526.779 362.814 449.814 439.779 449.814 534.721C449.814 629.662 526.779 706.628 621.721 706.628Z" fill="#105597"/>
<path d="M805.958 648.437L756.148 700.92L981.076 914.39L1030.89 861.906L805.958 648.437Z" fill="#105597"/>
<path d="M1055.35 858.602L921.74 734.477C912.838 726.207 898.918 726.719 890.648 735.621L846.432 783.217C838.163 792.119 838.675 806.039 847.577 814.309L981.19 938.434C990.092 946.704 1004.01 946.191 1012.28 937.289L1056.5 889.693C1064.77 880.792 1064.25 866.872 1055.35 858.602Z" fill="#C4C4C4"/>
<path d="M519.056 354.552C563.691 327.95 677.823 305.978 758.857 387.933" stroke="white" stroke-width="12" stroke-linecap="round"/>
<path d="M771.518 407.5C774.061 407.5 776.122 405.439 776.122 402.896C776.122 400.353 774.061 398.292 771.518 398.292C768.975 398.292 766.914 400.353 766.914 402.896C766.914 405.439 768.975 407.5 771.518 407.5Z" fill="white"/>
<path d="M908.109 763.556L984.845 834.921M819.094 687.971L844.034 710.608L819.094 687.971Z" stroke="white" stroke-width="11" stroke-linecap="round"/>
<path d="M711 438H532V631.99H711V438Z" fill="#EBEFF2"/>
<path d="M695.087 486.314H546.949C544.757 486.314 542.981 488.091 542.981 490.282C542.981 492.474 544.757 494.25 546.949 494.25H695.087C697.278 494.25 699.055 492.474 699.055 490.282C699.055 488.091 697.278 486.314 695.087 486.314Z" fill="#C4C4C4"/>
<path d="M683.624 502.187H557.53C555.339 502.187 553.562 503.963 553.562 506.154C553.562 508.346 555.339 510.122 557.53 510.122H683.624C685.815 510.122 687.592 508.346 687.592 506.154C687.592 503.963 685.815 502.187 683.624 502.187Z" fill="#C4C4C4"/>
<path d="M691.559 518.058H550.475C548.284 518.058 546.508 519.834 546.508 522.026C546.508 524.217 548.284 525.994 550.475 525.994H691.559C693.75 525.994 695.527 524.217 695.527 522.026C695.527 519.834 693.75 518.058 691.559 518.058Z" fill="#C4C4C4"/>
<path d="M695.087 542.698H546.949C544.757 542.698 542.981 544.475 542.981 546.666C542.981 548.858 544.757 550.634 546.949 550.634H695.087C697.278 550.634 699.055 548.858 699.055 546.666C699.055 544.475 697.278 542.698 695.087 542.698Z" fill="#C4C4C4"/>
<path d="M683.624 558.57H557.53C555.339 558.57 553.562 560.347 553.562 562.538C553.562 564.73 555.339 566.506 557.53 566.506H683.624C685.815 566.506 687.592 564.73 687.592 562.538C687.592 560.347 685.815 558.57 683.624 558.57Z" fill="#C4C4C4"/>
<path d="M691.559 574.442H550.475C548.284 574.442 546.508 576.218 546.508 578.41C546.508 580.601 548.284 582.378 550.475 582.378H691.559C693.75 582.378 695.527 580.601 695.527 578.41C695.527 576.218 693.75 574.442 691.559 574.442Z" fill="#C4C4C4"/>
</svg>
