<svg width="784" height="307" viewBox="0 0 784 307" fill="none" xmlns="http://www.w3.org/2000/svg">
<path d="M374.672 0.0187918C396.222 0.0287918 417.782 -0.0511997 439.332 0.0588003C439.152 57.4288 439.302 114.799 439.252 172.179C439.362 215.339 438.672 258.529 440.942 301.649C421.832 301.659 402.722 301.659 383.602 301.659C382.542 291.299 381.682 280.929 380.502 270.599C378.442 272.739 376.972 275.329 375.312 277.769C366.172 290.249 352.512 299.089 337.642 303.149C319.502 308.189 299.602 307.129 282.282 299.629C266.602 292.929 253.362 281.099 244.202 266.789C232.912 249.399 227.402 228.739 226.292 208.159C225.212 187.259 227.682 165.839 235.932 146.469C243.242 128.959 255.532 113.329 271.612 103.089C287.502 92.7688 306.832 88.1588 325.682 89.5088C340.042 90.4488 354.832 94.4188 366.002 103.869C369.322 106.509 371.692 110.059 374.572 113.129C374.812 75.4288 374.602 37.7188 374.672 0.0187918ZM325.132 139.889C316.872 141.969 309.502 147.009 304.292 153.709C295.632 165.309 291.992 179.909 291.582 194.209C291.092 209.889 293.902 226.449 303.452 239.319C314.352 254.479 336.642 259.189 353.072 250.669C362.982 245.659 370.082 235.929 372.602 225.189C375.032 216.739 374.662 207.879 374.672 199.179C374.612 189.469 375.032 179.709 373.662 170.069C371.432 160.009 365.522 150.639 356.912 144.869C347.732 138.589 335.782 137.169 325.132 139.889Z" fill="#005DB5"/>
<path d="M14.8323 107.489C35.9523 96.2588 59.8523 91.1388 83.5723 89.6288C105.942 88.4288 129.562 90.1588 149.462 101.399C164.392 109.659 175.502 123.919 180.912 139.999C186.672 156.059 187.132 173.329 186.892 190.209C187.012 220.549 186.432 250.909 187.712 281.229C188.092 288.069 188.812 294.879 189.852 301.659C170.462 301.659 151.062 301.659 131.662 301.659C130.572 295.789 129.482 289.929 128.462 284.049C128.292 282.699 127.762 281.469 127.082 280.329C117.052 292.329 102.982 300.669 87.7223 303.989C70.6523 307.759 52.1023 307.219 36.0723 299.749C22.2523 293.429 10.9723 281.809 5.10229 267.799C-2.06771 251.009 -1.36771 231.439 5.24229 214.609C11.9623 197.869 26.2423 185.249 42.3023 177.679C67.0523 166.009 94.8923 163.249 121.942 163.149C122.132 156.299 120.782 148.979 115.932 143.839C110.262 137.619 101.772 135.089 93.6723 134.069C70.4823 131.599 46.9123 137.799 26.7323 149.129C22.7523 135.249 18.7923 121.369 14.8323 107.489ZM83.1923 209.529C75.6323 212.689 68.2823 217.949 65.4823 225.989C62.1323 235.519 63.2923 247.649 71.0923 254.739C78.0023 260.809 88.0323 261.799 96.7423 259.989C110.752 257.119 123.162 244.839 123.782 230.159C124.272 221.289 123.902 212.389 124.012 203.509C110.252 203.609 96.1023 204.289 83.1923 209.529Z" fill="#005DB5"/>
<path d="M469.852 93.9088C491.802 93.8988 513.742 93.8988 535.692 93.9088C540.652 119.309 545.602 144.709 550.552 170.119C554.242 189.499 558.142 208.859 561.122 228.369C562.222 234.829 563.062 241.339 564.372 247.759C566.442 243.179 566.532 237.979 567.762 233.129C577.652 186.329 590.672 140.269 602.402 93.9088C619.402 93.9088 636.392 93.8988 653.392 93.9088C665.212 141.909 678.332 189.639 687.662 238.209C688.432 241.399 688.542 244.819 690.132 247.769C692.862 232.519 694.462 217.069 697.502 201.859C703.922 165.649 712.522 129.879 720.102 93.8988C741.192 93.9188 762.282 93.8888 783.372 93.9088C762.142 163.159 740.902 232.409 719.652 301.649C699.402 301.659 679.152 301.659 658.902 301.649C652.532 277.819 646.152 253.989 639.792 230.159C635.592 212.559 631.562 194.919 628.582 177.069C627.702 172.519 627.072 167.909 625.882 163.429C624.742 166.159 624.502 169.119 624.042 172.009C621.072 191.279 616.862 210.339 611.582 229.099C604.712 253.289 597.812 277.469 590.922 301.659C570.672 301.659 550.432 301.649 530.182 301.659C510.062 232.409 489.952 163.159 469.852 93.9088Z" fill="#005DB5"/>
</svg>
